<svg width="24" height="25" viewBox="0 0 24 25" fill="none" xmlns="http://www.w3.org/2000/svg">
<rect x="0.0234375" y="0.523438" width="23.9531" height="23.9531" stroke="white" stroke-width="0.046875"/>
<path d="M3 9.50147V6.12646C3 5.62918 3.19754 5.15227 3.54917 4.80064C3.90081 4.44901 4.37772 4.25146 4.875 4.25146H8.43234C8.80256 4.25147 9.16448 4.36108 9.4725 4.56646L10.7775 5.43646C11.0855 5.64185 11.4474 5.75146 11.8177 5.75146H19.125C19.6223 5.75146 20.0992 5.94901 20.4508 6.30064C20.8025 6.65227 21 7.12918 21 7.62647V9.50147" stroke="white" stroke-width="2" stroke-linecap="round" stroke-linejoin="round"/>
<path d="M22.4954 11.122L21.7351 18.8774C21.7351 19.3742 21.538 19.8506 21.1871 20.2021C20.8362 20.5536 20.3601 20.7516 19.8634 20.7524H4.1368C3.64009 20.7516 3.16402 20.5536 2.8131 20.2021C2.46218 19.8506 2.26508 19.3742 2.26508 18.8774L1.50477 11.122C1.48827 10.9156 1.51468 10.708 1.58234 10.5123C1.65001 10.3166 1.75745 10.137 1.89792 9.98489C2.03838 9.83275 2.20882 9.71135 2.39851 9.62832C2.5882 9.54529 2.79302 9.50243 3.00008 9.50244H21.0048C21.2114 9.50308 21.4158 9.54641 21.6049 9.62973C21.794 9.71304 21.9639 9.83454 22.1038 9.98661C22.2438 10.1387 22.3508 10.318 22.4182 10.5134C22.4856 10.7088 22.5119 10.916 22.4954 11.122V11.122Z" stroke="white" stroke-width="2" stroke-linecap="round" stroke-linejoin="round"/>
<line x1="12" y1="12" x2="12" y2="18" stroke="white" stroke-width="2"/>
<line x1="9" y1="15" x2="15" y2="15" stroke="white" stroke-width="2"/>
</svg>
