<svg width="100" height="100" viewBox="0 0 100 100" fill="none" xmlns="http://www.w3.org/2000/svg">
<path d="M12.5 37.5063V23.4438C12.5 21.3718 13.3231 19.3847 14.7882 17.9196C16.2534 16.4544 18.2405 15.6313 20.3125 15.6313H35.1348C36.6773 15.6314 38.1853 16.0881 39.4687 16.9438L44.9062 20.5688C46.1897 21.4246 47.6977 21.8813 49.2402 21.8813H79.6875C81.7595 21.8813 83.7466 22.7044 85.2118 24.1696C86.6769 25.6347 87.5 27.6218 87.5 29.6938V37.5063" stroke="#FEAD03" stroke-width="7" stroke-linecap="round" stroke-linejoin="round"/>
<path d="M93.7308 44.2578L90.5628 76.5723C90.5628 78.6419 89.7416 80.627 88.2795 82.0917C86.8173 83.5564 84.8337 84.3811 82.764 84.3848H17.2367C15.167 84.3811 13.1834 83.5564 11.7212 82.0917C10.2591 80.627 9.43784 78.6419 9.43785 76.5723L6.26988 44.2578C6.20112 43.3978 6.31118 42.5329 6.5931 41.7175C6.87503 40.9021 7.32272 40.1539 7.90799 39.52C8.49326 38.8861 9.20343 38.3802 9.99379 38.0343C10.7842 37.6883 11.6376 37.5097 12.5003 37.5098H87.5199C88.381 37.5124 89.2323 37.693 90.0203 38.0401C90.8084 38.3873 91.5162 38.8935 92.0993 39.5271C92.6825 40.1607 93.1284 40.908 93.4092 41.7221C93.6899 42.5361 93.7994 43.3994 93.7308 44.2578V44.2578Z" stroke="#FEAD03" stroke-width="7" stroke-linecap="round" stroke-linejoin="round"/>
<path d="M12.5 37.5063V23.4438C12.5 21.3718 13.3231 19.3847 14.7882 17.9196C16.2534 16.4544 18.2405 15.6313 20.3125 15.6313H35.1348C36.6773 15.6314 38.1853 16.0881 39.4687 16.9438L44.9062 20.5688C46.1897 21.4246 47.6977 21.8813 49.2402 21.8813H79.6875C81.7595 21.8813 83.7466 22.7044 85.2118 24.1696C86.6769 25.6347 87.5 27.6218 87.5 29.6938V37.5063" stroke="#FEAD03" stroke-width="7" stroke-linecap="round" stroke-linejoin="round"/>
<path d="M93.7308 44.2578L90.5628 76.5723C90.5628 78.6419 89.7416 80.627 88.2795 82.0917C86.8173 83.5564 84.8337 84.3811 82.764 84.3848H17.2367C15.167 84.3811 13.1834 83.5564 11.7212 82.0917C10.2591 80.627 9.43784 78.6419 9.43785 76.5723L6.26988 44.2578C6.20112 43.3978 6.31118 42.5329 6.5931 41.7175C6.87503 40.9021 7.32272 40.1539 7.90799 39.52C8.49326 38.8861 9.20343 38.3802 9.99379 38.0343C10.7842 37.6883 11.6376 37.5097 12.5003 37.5098H87.5199C88.381 37.5124 89.2323 37.693 90.0203 38.0401C90.8084 38.3873 91.5162 38.8935 92.0993 39.5271C92.6825 40.1607 93.1284 40.908 93.4092 41.7221C93.6899 42.5361 93.7994 43.3994 93.7308 44.2578V44.2578Z" stroke="#FEAD03" stroke-width="7" stroke-linecap="round" stroke-linejoin="round"/>
<path d="M50 47V75.5" stroke="#FEAD03" stroke-width="7"/>
<path d="M36 61C46.5442 61 52.4558 61 63 61" stroke="#FEAD03" stroke-width="7"/>
</svg>
