<svg width="20" height="20" viewBox="0 0 20 20" fill="none" xmlns="http://www.w3.org/2000/svg">
<path d="M16.25 3.12451H3.75C2.71447 3.12451 1.875 3.96398 1.875 4.99951V16.2495C1.875 17.285 2.71447 18.1245 3.75 18.1245H16.25C17.2855 18.1245 18.125 17.285 18.125 16.2495V4.99951C18.125 3.96398 17.2855 3.12451 16.25 3.12451Z" stroke="#E0E0E0" stroke-width="1.5" stroke-linejoin="round"/>
<path d="M11.5625 9.99853C12.0803 9.99853 12.5 9.5788 12.5 9.06103C12.5 8.54327 12.0803 8.12354 11.5625 8.12354C11.0447 8.12354 10.625 8.54327 10.625 9.06103C10.625 9.5788 11.0447 9.99853 11.5625 9.99853Z" fill="#E0E0E0"/>
<path d="M14.6875 9.99853C15.2053 9.99853 15.625 9.5788 15.625 9.06103C15.625 8.54327 15.2053 8.12354 14.6875 8.12354C14.1697 8.12354 13.75 8.54327 13.75 9.06103C13.75 9.5788 14.1697 9.99853 14.6875 9.99853Z" fill="#E0E0E0"/>
<path d="M11.5625 13.1235C12.0803 13.1235 12.5 12.7038 12.5 12.186C12.5 11.6683 12.0803 11.2485 11.5625 11.2485C11.0447 11.2485 10.625 11.6683 10.625 12.186C10.625 12.7038 11.0447 13.1235 11.5625 13.1235Z" fill="#E0E0E0"/>
<path d="M14.6875 13.1235C15.2053 13.1235 15.625 12.7038 15.625 12.186C15.625 11.6683 15.2053 11.2485 14.6875 11.2485C14.1697 11.2485 13.75 11.6683 13.75 12.186C13.75 12.7038 14.1697 13.1235 14.6875 13.1235Z" fill="#E0E0E0"/>
<path d="M5.3125 13.1235C5.83027 13.1235 6.25 12.7038 6.25 12.186C6.25 11.6683 5.83027 11.2485 5.3125 11.2485C4.79473 11.2485 4.375 11.6683 4.375 12.186C4.375 12.7038 4.79473 13.1235 5.3125 13.1235Z" fill="#E0E0E0"/>
<path d="M8.4375 13.1235C8.95527 13.1235 9.375 12.7038 9.375 12.186C9.375 11.6683 8.95527 11.2485 8.4375 11.2485C7.91973 11.2485 7.5 11.6683 7.5 12.186C7.5 12.7038 7.91973 13.1235 8.4375 13.1235Z" fill="#E0E0E0"/>
<path d="M5.3125 16.2485C5.83027 16.2485 6.25 15.8288 6.25 15.311C6.25 14.7933 5.83027 14.3735 5.3125 14.3735C4.79473 14.3735 4.375 14.7933 4.375 15.311C4.375 15.8288 4.79473 16.2485 5.3125 16.2485Z" fill="#E0E0E0"/>
<path d="M8.4375 16.2485C8.95527 16.2485 9.375 15.8288 9.375 15.311C9.375 14.7933 8.95527 14.3735 8.4375 14.3735C7.91973 14.3735 7.5 14.7933 7.5 15.311C7.5 15.8288 7.91973 16.2485 8.4375 16.2485Z" fill="#E0E0E0"/>
<path d="M11.5625 16.2485C12.0803 16.2485 12.5 15.8288 12.5 15.311C12.5 14.7933 12.0803 14.3735 11.5625 14.3735C11.0447 14.3735 10.625 14.7933 10.625 15.311C10.625 15.8288 11.0447 16.2485 11.5625 16.2485Z" fill="#E0E0E0"/>
<path d="M15 1.87354V3.12354M5 1.87354V3.12354V1.87354Z" stroke="#E0E0E0" stroke-width="1.5" stroke-linecap="round" stroke-linejoin="round"/>
<path d="M18.125 6.24951H1.875" stroke="#E0E0E0" stroke-width="1.5" stroke-linejoin="round"/>
</svg>
