<svg width="20" height="20" viewBox="0 0 20 20" fill="none" xmlns="http://www.w3.org/2000/svg">
<path d="M10 0.249512C4.62391 0.249512 0.25 4.62342 0.25 9.99951C0.25 15.3756 4.62391 19.7495 10 19.7495C15.3761 19.7495 19.75 15.3756 19.75 9.99951C19.75 4.62342 15.3761 0.249512 10 0.249512ZM15.0742 6.73186L8.77422 14.2319C8.70511 14.3142 8.61912 14.3807 8.52207 14.4268C8.42502 14.473 8.31918 14.4978 8.21172 14.4995H8.19906C8.09394 14.4995 7.99 14.4773 7.89398 14.4345C7.79797 14.3917 7.71202 14.3292 7.64172 14.2511L4.94172 11.2511C4.87315 11.1783 4.81981 11.0926 4.78483 10.999C4.74986 10.9054 4.73395 10.8057 4.73805 10.7058C4.74215 10.6059 4.76617 10.5079 4.8087 10.4174C4.85124 10.327 4.91142 10.2459 4.98572 10.1791C5.06002 10.1122 5.14694 10.0609 5.24136 10.0281C5.33579 9.99529 5.43581 9.9817 5.53556 9.98812C5.63531 9.99454 5.73277 10.0208 5.82222 10.0654C5.91166 10.1101 5.99129 10.1721 6.05641 10.2479L8.17938 12.6067L13.9258 5.76717C14.0547 5.61814 14.237 5.52583 14.4335 5.51018C14.6299 5.49452 14.8246 5.5568 14.9754 5.68353C15.1263 5.81026 15.2212 5.99127 15.2397 6.18744C15.2582 6.38361 15.1988 6.57917 15.0742 6.73186V6.73186Z" fill="#53D86A"/>
</svg>
