<svg width="30" height="30" viewBox="0 0 30 30" fill="none" xmlns="http://www.w3.org/2000/svg">
<path d="M3.75 11.252V7.0332C3.75 6.4116 3.99693 5.81546 4.43647 5.37592C4.87601 4.93638 5.47215 4.68945 6.09375 4.68945H10.5404C11.0032 4.68946 11.4556 4.82647 11.8406 5.0832L13.4719 6.1707C13.8569 6.42743 14.3093 6.56444 14.7721 6.56445H23.9062C24.5278 6.56445 25.124 6.81138 25.5635 7.25092C26.0031 7.69046 26.25 8.2866 26.25 8.9082V11.252" stroke="#2196F3" stroke-width="2" stroke-linecap="round" stroke-linejoin="round"/>
<path d="M28.1192 13.2773L27.1688 22.9717C27.1688 23.5926 26.9224 24.1881 26.4838 24.6275C26.0451 25.0669 25.45 25.3143 24.8291 25.3154H5.17094C4.55005 25.3143 3.95496 25.0669 3.51631 24.6275C3.07766 24.1881 2.83129 23.5926 2.83129 22.9717L1.8809 13.2773C1.86028 13.0193 1.89329 12.7599 1.97787 12.5152C2.06245 12.2706 2.19675 12.0462 2.37234 11.856C2.54792 11.6658 2.76097 11.5141 2.99808 11.4103C3.23519 11.3065 3.49121 11.2529 3.75004 11.2529H26.2559C26.5142 11.2537 26.7696 11.3079 27.006 11.412C27.2424 11.5162 27.4548 11.6681 27.6297 11.8581C27.8047 12.0482 27.9385 12.2724 28.0227 12.5166C28.1069 12.7608 28.1398 13.0198 28.1192 13.2773V13.2773Z" stroke="#2196F3" stroke-width="2" stroke-linecap="round" stroke-linejoin="round"/>
</svg>
