<svg width="30" height="30" viewBox="0 0 30 30" fill="none" xmlns="http://www.w3.org/2000/svg">
<path d="M9.37511 21.5669H26.2501M9.37511 8.44189H26.2501H9.37511ZM9.37511 15.0044H26.2501H9.37511Z" stroke="#333333" stroke-width="1.5" stroke-linecap="round" stroke-linejoin="round"/>
<path d="M4.68758 9.37598C5.20534 9.37598 5.62508 8.95624 5.62508 8.43848C5.62508 7.92071 5.20534 7.50098 4.68758 7.50098C4.16981 7.50098 3.75008 7.92071 3.75008 8.43848C3.75008 8.95624 4.16981 9.37598 4.68758 9.37598Z" stroke="#333333" stroke-width="1.5" stroke-linecap="round" stroke-linejoin="round"/>
<path d="M4.68758 15.9395C5.20534 15.9395 5.62508 15.5197 5.62508 15.002C5.62508 14.4842 5.20534 14.0645 4.68758 14.0645C4.16981 14.0645 3.75008 14.4842 3.75008 15.002C3.75008 15.5197 4.16981 15.9395 4.68758 15.9395Z" stroke="#333333" stroke-width="1.5" stroke-linecap="round" stroke-linejoin="round"/>
<path d="M4.68758 22.5029C5.20534 22.5029 5.62508 22.0832 5.62508 21.5654C5.62508 21.0477 5.20534 20.6279 4.68758 20.6279C4.16981 20.6279 3.75008 21.0477 3.75008 21.5654C3.75008 22.0832 4.16981 22.5029 4.68758 22.5029Z" stroke="#333333" stroke-width="1.5" stroke-linecap="round" stroke-linejoin="round"/>
</svg>
