<svg width="30" height="30" viewBox="0 0 30 30" fill="none" xmlns="http://www.w3.org/2000/svg">
<path d="M25.786 20.0018C25.6888 19.8846 25.5933 19.7674 25.4995 19.6543C24.2105 18.0952 23.4306 17.1541 23.4306 12.7403C23.4306 10.4551 22.8839 8.58013 21.8064 7.17388C21.0118 6.13501 19.9378 5.34692 18.5222 4.7645C18.504 4.75437 18.4877 4.74107 18.4741 4.72524C17.965 3.02017 16.5716 1.87817 15.0001 1.87817C13.4286 1.87817 12.0359 3.02017 11.5267 4.72349C11.5131 4.73874 11.497 4.75161 11.4792 4.76157C8.1757 6.12153 6.57023 8.73071 6.57023 12.7385C6.57023 17.1541 5.79152 18.0952 4.50129 19.6526C4.40754 19.7657 4.31203 19.8805 4.21476 20C3.96351 20.303 3.80433 20.6717 3.75604 21.0623C3.70775 21.453 3.77239 21.8493 3.9423 22.2043C4.30382 22.9661 5.07433 23.4389 5.95382 23.4389H24.0528C24.9282 23.4389 25.6935 22.9666 26.0562 22.2084C26.2268 21.8533 26.2921 21.4567 26.2442 21.0656C26.1963 20.6745 26.0373 20.3053 25.786 20.0018ZM15.0001 28.1282C15.8468 28.1275 16.6775 27.8976 17.4042 27.463C18.1308 27.0284 18.7263 26.4053 19.1275 25.6596C19.1464 25.6239 19.1557 25.5839 19.1546 25.5435C19.1534 25.5031 19.1418 25.4636 19.121 25.429C19.1001 25.3944 19.0706 25.3658 19.0354 25.3459C19.0002 25.326 18.9605 25.3156 18.92 25.3157H11.0814C11.0409 25.3155 11.0011 25.3259 10.9658 25.3457C10.9305 25.3655 10.9009 25.3941 10.88 25.4288C10.859 25.4634 10.8474 25.5029 10.8463 25.5433C10.8451 25.5838 10.8544 25.6238 10.8734 25.6596C11.2744 26.4052 11.8698 27.0283 12.5964 27.4629C13.3229 27.8975 14.1535 28.1274 15.0001 28.1282Z" fill="white"/>
</svg>
