<svg width="30" height="30" viewBox="0 0 30 30" fill="none" xmlns="http://www.w3.org/2000/svg">
<path d="M21.5625 2.81543H20.8939C20.7998 2.81533 20.7078 2.78689 20.6301 2.7338C20.5523 2.68071 20.4924 2.60543 20.458 2.51777C20.2779 2.05363 19.9618 1.6547 19.5511 1.37325C19.1404 1.09179 18.6543 0.940935 18.1564 0.94043H11.8436C11.3457 0.940935 10.8596 1.09179 10.4489 1.37325C10.0382 1.6547 9.72211 2.05363 9.54199 2.51777C9.50763 2.60543 9.44766 2.68071 9.3699 2.7338C9.29215 2.78689 9.20021 2.81533 9.10605 2.81543H8.4375C7.44294 2.81543 6.48911 3.21052 5.78585 3.91378C5.08259 4.61704 4.6875 5.57087 4.6875 6.56543V25.3154C4.6875 26.31 5.08259 27.2638 5.78585 27.9671C6.48911 28.6703 7.44294 29.0654 8.4375 29.0654H21.5625C22.5571 29.0654 23.5109 28.6703 24.2141 27.9671C24.9174 27.2638 25.3125 26.31 25.3125 25.3154V6.56543C25.3125 5.57087 24.9174 4.61704 24.2141 3.91378C23.5109 3.21052 22.5571 2.81543 21.5625 2.81543ZM18.7424 6.56543H11.2576C11.009 6.56543 10.7705 6.46666 10.5947 6.29084C10.4189 6.11503 10.3201 5.87657 10.3201 5.62793C10.3201 5.37929 10.4189 5.14083 10.5947 4.96502C10.7705 4.7892 11.009 4.69043 11.2576 4.69043H18.7424C18.991 4.69043 19.2295 4.7892 19.4053 4.96502C19.5811 5.14083 19.6799 5.37929 19.6799 5.62793C19.6799 5.87657 19.5811 6.11503 19.4053 6.29084C19.2295 6.46666 18.991 6.56543 18.7424 6.56543Z" fill="#FEAD03"/>
</svg>
