<svg width="15" height="15" viewBox="0 0 15 15" fill="none" xmlns="http://www.w3.org/2000/svg">
<path d="M13.5937 12.5381L9.95859 8.90234C10.5444 8.0973 10.8596 7.12707 10.8586 6.13144C10.8586 3.52549 8.73838 1.40527 6.13242 1.40527C3.52646 1.40527 1.40625 3.52549 1.40625 6.13144C1.40625 8.7374 3.52646 10.8576 6.13242 10.8576C7.12805 10.8586 8.09828 10.5434 8.90332 9.95762L12.5391 13.5928L13.5937 12.5381ZM6.13242 9.36494C5.49281 9.365 4.86755 9.17538 4.33571 8.82007C3.80388 8.46476 3.38935 7.95971 3.14455 7.3688C2.89976 6.77789 2.83569 6.12766 2.96046 5.50034C3.08523 4.87302 3.39322 4.29679 3.84549 3.84452C4.29777 3.39225 4.874 3.08425 5.50132 2.95949C6.12864 2.83472 6.77887 2.89878 7.36978 3.14358C7.96069 3.38837 8.46574 3.8029 8.82105 4.33474C9.17636 4.86658 9.36597 5.49184 9.36592 6.13144C9.36491 6.98871 9.02391 7.81058 8.41773 8.41676C7.81156 9.02294 6.98969 9.36393 6.13242 9.36494V9.36494Z" fill="#666666"/>
</svg>
