<svg width="24" height="24" viewBox="0 0 24 24" fill="none" xmlns="http://www.w3.org/2000/svg">
<path d="M12.0001 14.2534C13.2428 14.2534 14.2501 13.2461 14.2501 12.0034C14.2501 10.7608 13.2428 9.75342 12.0001 9.75342C10.7575 9.75342 9.75012 10.7608 9.75012 12.0034C9.75012 13.2461 10.7575 14.2534 12.0001 14.2534Z" fill="#FEAD03"/>
<path d="M22.0495 14.0654L22.0275 14.0476L20.5481 12.8875C20.4544 12.8133 20.3796 12.7181 20.3299 12.6094C20.2802 12.5008 20.257 12.382 20.2622 12.2626V11.7207C20.2575 11.6022 20.281 11.4842 20.3308 11.3764C20.3806 11.2687 20.4552 11.1743 20.5486 11.1011L22.0275 9.94043L22.0495 9.92262C22.2776 9.73262 22.4306 9.46768 22.4813 9.17518C22.532 8.88268 22.4769 8.5817 22.3261 8.32605L20.324 4.86199C20.3217 4.85872 20.3197 4.85528 20.3179 4.85168C20.1662 4.59957 19.931 4.40855 19.6532 4.31179C19.3753 4.21503 19.0723 4.21864 18.7968 4.32199L18.7804 4.32809L17.0414 5.02793C16.9316 5.07231 16.8129 5.08997 16.6949 5.07946C16.577 5.06894 16.4633 5.03056 16.3631 4.96746C16.2093 4.87059 16.0531 4.77902 15.8943 4.69277C15.7914 4.63696 15.703 4.55774 15.6364 4.46149C15.5697 4.36525 15.5265 4.25469 15.5104 4.13871L15.2484 2.28293L15.2428 2.24918C15.1857 1.96174 15.0315 1.7027 14.806 1.51558C14.5804 1.32847 14.2974 1.22469 14.0043 1.22168H9.99559C9.69843 1.22263 9.41114 1.32842 9.18433 1.52042C8.95752 1.71241 8.80575 1.97829 8.75574 2.27121L8.75153 2.29746L8.49043 4.15699C8.47442 4.27263 8.43162 4.38294 8.36546 4.47913C8.2993 4.57532 8.2116 4.65473 8.10934 4.71105C7.95013 4.79681 7.79379 4.88779 7.64059 4.98387C7.54059 5.04658 7.42713 5.08467 7.30955 5.09502C7.19196 5.10537 7.0736 5.08768 6.96418 5.0434L5.22371 4.34027L5.20731 4.33371C4.93143 4.23024 4.62801 4.22677 4.34983 4.32389C4.07166 4.42101 3.83634 4.61258 3.68481 4.86527L3.67871 4.87559L1.67387 8.34199C1.52276 8.5979 1.4676 8.89922 1.51827 9.19206C1.56894 9.4849 1.72212 9.75017 1.95043 9.94043L1.97246 9.95824L3.45184 11.1184C3.54552 11.1925 3.62029 11.2878 3.67 11.3964C3.7197 11.505 3.74293 11.6239 3.73777 11.7432V12.2851C3.74247 12.4037 3.71896 12.5217 3.66917 12.6294C3.61938 12.7372 3.54473 12.8315 3.45137 12.9048L1.97246 14.0654L1.95043 14.0832C1.72235 14.2732 1.56929 14.5382 1.51862 14.8307C1.46795 15.1232 1.52298 15.4242 1.67387 15.6798L3.6759 19.1439C3.6782 19.1471 3.68024 19.1506 3.68199 19.1542C3.83369 19.4063 4.06889 19.5973 4.34676 19.6941C4.62463 19.7908 4.92761 19.7872 5.20309 19.6839L5.21949 19.6778L6.95715 18.9779C7.06691 18.9335 7.18565 18.9159 7.30358 18.9264C7.42151 18.9369 7.53525 18.9753 7.63543 19.0384C7.78918 19.1356 7.94543 19.2271 8.10418 19.3131C8.20711 19.3689 8.29548 19.4481 8.36216 19.5444C8.42885 19.6406 8.47198 19.7512 8.48809 19.8671L8.74871 21.7229L8.75434 21.7567C8.81148 22.0446 8.96614 22.304 9.19225 22.4912C9.41835 22.6783 9.70207 22.7818 9.99559 22.7842H14.0043C14.3015 22.7832 14.5888 22.6774 14.8156 22.4854C15.0424 22.2934 15.1942 22.0276 15.2442 21.7346L15.2484 21.7084L15.5095 19.8489C15.5258 19.733 15.5689 19.6226 15.6355 19.5264C15.7021 19.4301 15.7902 19.3509 15.8929 19.2948C16.0532 19.2086 16.2098 19.1171 16.3617 19.022C16.4617 18.9593 16.5751 18.9212 16.6927 18.9108C16.8103 18.9005 16.9287 18.9182 17.0381 18.9625L18.7786 19.6632L18.795 19.6698C19.0708 19.7735 19.3743 19.777 19.6525 19.6799C19.9308 19.5828 20.1661 19.3911 20.3175 19.1382C20.3193 19.1347 20.3214 19.1313 20.3236 19.1279L22.3256 15.6643C22.477 15.4085 22.5323 15.1071 22.4817 14.8141C22.4312 14.5211 22.2779 14.2557 22.0495 14.0654V14.0654ZM15.7457 12.1792C15.7116 12.9051 15.4673 13.6054 15.0425 14.195C14.6177 14.7847 14.0308 15.2382 13.3531 15.5004C12.6753 15.7626 11.936 15.8223 11.225 15.6721C10.514 15.5219 9.8619 15.1684 9.34808 14.6545C8.83425 14.1406 8.48081 13.4885 8.33073 12.7775C8.18065 12.0665 8.24039 11.3271 8.5027 10.6494C8.76501 9.97174 9.21857 9.38484 9.80824 8.96014C10.3979 8.53543 11.0983 8.2912 11.8242 8.25715C12.3453 8.2342 12.8655 8.31995 13.3517 8.50894C13.8379 8.69793 14.2795 8.98602 14.6483 9.3549C15.0172 9.72378 15.3052 10.1654 15.4941 10.6516C15.6831 11.1378 15.7688 11.658 15.7457 12.1792V12.1792Z" fill="#FED580"/>
</svg>
