<svg width="20" height="21" viewBox="0 0 20 21" fill="none" xmlns="http://www.w3.org/2000/svg">
<path d="M10 2.37598C5.5125 2.37598 1.875 6.01348 1.875 10.501C1.875 14.9885 5.5125 18.626 10 18.626C14.4875 18.626 18.125 14.9885 18.125 10.501C18.125 6.01348 14.4875 2.37598 10 2.37598ZM6.78398 6.84238L10.8855 9.61582C11.1563 9.81082 11.3394 10.1046 11.3952 10.4335C11.4511 10.7625 11.3752 11.1002 11.1839 11.3736C10.9927 11.647 10.7015 11.8342 10.3734 11.8945C10.0452 11.9549 9.70651 11.8837 9.43047 11.6963C9.30919 11.6108 9.20349 11.5051 9.11797 11.3838L6.34453 7.28223C6.30184 7.22107 6.28203 7.14684 6.28859 7.07254C6.29514 6.99824 6.32764 6.92862 6.38038 6.87588C6.43312 6.82314 6.50273 6.79065 6.57703 6.7841C6.65133 6.77754 6.72556 6.79735 6.78672 6.84004L6.78398 6.84238ZM10 17.376C6.21094 17.376 3.125 14.292 3.125 10.501C3.12178 9.57632 3.30667 8.66067 3.66842 7.80971C4.03017 6.95875 4.56123 6.19026 5.2293 5.55098C5.28125 5.49918 5.343 5.45825 5.41094 5.43056C5.47887 5.40287 5.55164 5.38899 5.625 5.38971C5.69836 5.39044 5.77084 5.40576 5.83822 5.43478C5.9056 5.46381 5.96652 5.50596 6.01744 5.55877C6.06837 5.61159 6.10826 5.67401 6.13481 5.7424C6.16136 5.81079 6.17403 5.88378 6.17208 5.95712C6.17013 6.03046 6.15359 6.10267 6.12345 6.16955C6.0933 6.23644 6.05014 6.29665 5.99648 6.34668C5.43588 6.88326 4.99024 7.52822 4.68665 8.24238C4.38306 8.95654 4.22785 9.72497 4.23047 10.501C4.23047 13.6822 6.81875 16.2705 10 16.2705C13.1812 16.2705 15.7695 13.6822 15.7695 10.501C15.7695 7.50605 13.4758 5.03691 10.5527 4.75879V6.90723C10.5527 7.05382 10.4945 7.19441 10.3908 7.29807C10.2872 7.40173 10.1466 7.45996 10 7.45996C9.8534 7.45996 9.71282 7.40173 9.60916 7.29807C9.5055 7.19441 9.44727 7.05382 9.44727 6.90723V4.17871C9.44727 4.03212 9.5055 3.89153 9.60916 3.78787C9.71282 3.68421 9.8534 3.62598 10 3.62598C13.791 3.62598 16.875 6.71191 16.875 10.501C16.875 14.29 13.791 17.376 10 17.376Z" fill="#FD3D39"/>
</svg>
