<svg width="30" height="30" viewBox="0 0 30 30" fill="none" xmlns="http://www.w3.org/2000/svg">
<path d="M6.6156 7.49915C4.79638 9.53097 3.77785 12.1549 3.74978 14.882C3.68064 21.1134 8.76834 26.2374 14.9998 26.2492C21.2224 26.2609 26.2498 21.2201 26.2498 14.9992C26.2498 8.87376 21.3543 3.88919 15.2635 3.74916C15.2292 3.74805 15.195 3.75387 15.163 3.76625C15.131 3.77863 15.1019 3.79733 15.0773 3.82122C15.0527 3.84512 15.0331 3.87372 15.0198 3.90533C15.0065 3.93694 14.9997 3.97091 14.9998 4.00521V8.9054" stroke="#FEAD03" stroke-width="2" stroke-linecap="round" stroke-linejoin="round"/>
<path d="M15.745 14.481H15.746C15.9144 14.6024 16.0355 14.7775 16.0897 14.9761L16.1083 15.063C16.1431 15.2679 16.1067 15.478 16.0057 15.6577L15.9579 15.7329C15.8386 15.9033 15.6649 16.0266 15.4667 16.0835L15.3807 16.104C15.1479 16.1469 14.908 16.0958 14.7118 15.9634C14.6695 15.9336 14.6294 15.9009 14.5927 15.8647L14.4872 15.7417L11.5594 11.5542L15.745 14.481Z" fill="#666666" stroke="#FEAD03" stroke-width="2"/>
</svg>
