<svg width="40" height="40" viewBox="0 0 40 40" fill="none" xmlns="http://www.w3.org/2000/svg">
<rect width="40" height="40" rx="20" fill="#FEC242"/>
<path d="M26.25 13.1245H13.75C12.7145 13.1245 11.875 13.964 11.875 14.9995V26.2495C11.875 27.285 12.7145 28.1245 13.75 28.1245H26.25C27.2855 28.1245 28.125 27.285 28.125 26.2495V14.9995C28.125 13.964 27.2855 13.1245 26.25 13.1245Z" stroke="white" stroke-width="1.5" stroke-linejoin="round"/>
<path d="M21.5626 19.9985C22.0804 19.9985 22.5001 19.5788 22.5001 19.061C22.5001 18.5433 22.0804 18.1235 21.5626 18.1235C21.0448 18.1235 20.6251 18.5433 20.6251 19.061C20.6251 19.5788 21.0448 19.9985 21.5626 19.9985Z" fill="white"/>
<path d="M24.6875 19.9985C25.2052 19.9985 25.625 19.5788 25.625 19.061C25.625 18.5433 25.2052 18.1235 24.6875 18.1235C24.1697 18.1235 23.75 18.5433 23.75 19.061C23.75 19.5788 24.1697 19.9985 24.6875 19.9985Z" fill="white"/>
<path d="M21.5626 23.1235C22.0804 23.1235 22.5001 22.7038 22.5001 22.186C22.5001 21.6683 22.0804 21.2485 21.5626 21.2485C21.0448 21.2485 20.6251 21.6683 20.6251 22.186C20.6251 22.7038 21.0448 23.1235 21.5626 23.1235Z" fill="white"/>
<path d="M24.6875 23.1235C25.2052 23.1235 25.625 22.7038 25.625 22.186C25.625 21.6683 25.2052 21.2485 24.6875 21.2485C24.1697 21.2485 23.75 21.6683 23.75 22.186C23.75 22.7038 24.1697 23.1235 24.6875 23.1235Z" fill="white"/>
<path d="M15.3125 23.1235C15.8302 23.1235 16.25 22.7038 16.25 22.186C16.25 21.6683 15.8302 21.2485 15.3125 21.2485C14.7947 21.2485 14.375 21.6683 14.375 22.186C14.375 22.7038 14.7947 23.1235 15.3125 23.1235Z" fill="white"/>
<path d="M18.4375 23.1235C18.9552 23.1235 19.375 22.7038 19.375 22.186C19.375 21.6683 18.9552 21.2485 18.4375 21.2485C17.9197 21.2485 17.5 21.6683 17.5 22.186C17.5 22.7038 17.9197 23.1235 18.4375 23.1235Z" fill="white"/>
<path d="M15.3125 26.2485C15.8302 26.2485 16.25 25.8288 16.25 25.311C16.25 24.7933 15.8302 24.3735 15.3125 24.3735C14.7947 24.3735 14.375 24.7933 14.375 25.311C14.375 25.8288 14.7947 26.2485 15.3125 26.2485Z" fill="white"/>
<path d="M18.4375 26.2485C18.9552 26.2485 19.375 25.8288 19.375 25.311C19.375 24.7933 18.9552 24.3735 18.4375 24.3735C17.9197 24.3735 17.5 24.7933 17.5 25.311C17.5 25.8288 17.9197 26.2485 18.4375 26.2485Z" fill="white"/>
<path d="M21.5626 26.2485C22.0804 26.2485 22.5001 25.8288 22.5001 25.311C22.5001 24.7933 22.0804 24.3735 21.5626 24.3735C21.0448 24.3735 20.6251 24.7933 20.6251 25.311C20.6251 25.8288 21.0448 26.2485 21.5626 26.2485Z" fill="white"/>
<path d="M25 11.8735V13.1235M15 11.8735V13.1235V11.8735Z" stroke="white" stroke-width="1.5" stroke-linecap="round" stroke-linejoin="round"/>
<path d="M28.125 16.2495H11.875" stroke="white" stroke-width="1.5" stroke-linejoin="round"/>
</svg>
