<svg width="40" height="40" viewBox="0 0 40 40" fill="none" xmlns="http://www.w3.org/2000/svg">
<rect width="40" height="40" rx="20" fill="#219EBC"/>
<path d="M20 11.876C15.5128 11.876 11.875 15.5139 11.875 20.001C11.875 24.4811 15.5203 28.126 20 28.126C24.4867 28.126 28.125 24.4877 28.125 20.001C28.125 15.5209 24.48 11.876 20 11.876ZM24.2187 21.251H19.5312C19.4898 21.251 19.45 21.2345 19.4207 21.2052C19.3914 21.1759 19.375 21.1362 19.375 21.0947V14.5322C19.375 14.4908 19.3914 14.451 19.4207 14.4217C19.45 14.3924 19.4898 14.376 19.5312 14.376H20.4687C20.5101 14.376 20.5499 14.3924 20.5792 14.4217C20.6085 14.451 20.625 14.4908 20.625 14.5322V20.001H24.2187C24.2601 20.001 24.2999 20.0174 24.3292 20.0467C24.3585 20.076 24.375 20.1158 24.375 20.1572V21.0947C24.375 21.1362 24.3585 21.1759 24.3292 21.2052C24.2999 21.2345 24.2601 21.251 24.2187 21.251Z" fill="white"/>
</svg>
