<svg width="40" height="40" viewBox="0 0 40 40" fill="none" xmlns="http://www.w3.org/2000/svg">
<rect width="40" height="40" rx="20" fill="#FF7A25"/>
<path d="M20.6788 24.3883C20.6472 24.0277 20.3327 23.7461 19.9542 23.7461C19.7911 23.745 19.6323 23.7987 19.5034 23.8987C19.3745 23.9986 19.2829 24.139 19.2433 24.2973L18.5323 27.7496C18.5089 27.8505 18.4967 27.9538 18.496 28.0574C18.496 28.8359 19.1476 29.377 19.9542 29.377C20.7609 29.377 21.4128 28.8359 21.4128 28.0574C21.4124 27.9327 21.3954 27.8086 21.3624 27.6883L20.6788 24.3883ZM26.0566 25.9324C25.9842 25.869 25.9065 25.8122 25.8241 25.7625L23.1081 23.8645C22.8437 23.6984 22.5613 23.7031 22.3562 23.9035C22.2667 23.9887 22.2098 24.1026 22.1956 24.2253C22.1813 24.3481 22.2105 24.4719 22.278 24.5754L24.3288 27.2707C24.3757 27.3361 24.4279 27.3973 24.4851 27.4539C24.8405 27.8512 25.6288 27.873 26.062 27.4539C26.4894 27.0277 26.4843 26.2684 26.0566 25.9324ZM28.0976 23.1207H25.3468C25.1691 23.1207 24.9999 23.2516 24.9999 23.4395C24.9999 23.6273 25.1152 23.7461 25.2702 23.7973L27.8652 24.6C28.2421 24.6879 28.7499 24.352 28.7499 23.9324C28.7499 23.3988 28.453 23.1207 28.0976 23.1207ZM15.0085 23.4379C15.0085 23.2426 14.8308 23.1191 14.6394 23.1191H11.8886C11.5421 23.1191 11.2499 23.4934 11.2499 23.9129C11.2499 24.3324 11.7429 24.6879 12.121 24.6L14.755 23.7973C14.9265 23.7461 15.0085 23.6332 15.0085 23.4379ZM16.8964 23.8676L14.1796 25.7574C14.0952 25.8049 14.0166 25.8619 13.9452 25.9273C13.8417 26.0236 13.7592 26.1402 13.7028 26.2697C13.6463 26.3993 13.6172 26.5391 13.6172 26.6805C13.6172 26.8218 13.6463 26.9616 13.7028 27.0912C13.7592 27.2208 13.8417 27.3373 13.9452 27.4336C14.1583 27.6349 14.4404 27.747 14.7335 27.747C15.0267 27.747 15.3087 27.6349 15.5218 27.4336C15.5799 27.378 15.6322 27.3168 15.678 27.2508L17.7304 24.5707C17.8671 24.3527 17.8445 24.0828 17.6523 23.9043C17.551 23.8098 17.4194 23.7543 17.2811 23.7475C17.1427 23.7408 17.0064 23.7834 16.8964 23.8676Z" fill="white"/>
<path d="M24.3749 14.8824C24.3749 12.7066 22.4523 11.3996 20.6953 11.2473C20.6529 11.2436 20.6103 11.2486 20.57 11.2619C20.5297 11.2752 20.4925 11.2967 20.4607 11.3248C20.429 11.353 20.4033 11.3874 20.3852 11.4258C20.3672 11.4643 20.3572 11.506 20.3558 11.5484C20.2339 14.5172 16.0831 15.8723 15.6734 18.5281C15.3999 20.3016 16.3238 21.3551 17.0136 21.8789C17.0867 21.9344 17.1711 21.9731 17.2608 21.9922C17.3505 22.0113 17.4434 22.0103 17.5327 21.9893C17.622 21.9683 17.7056 21.9279 17.7775 21.8709C17.8493 21.8138 17.9077 21.7416 17.9484 21.6594C18.8273 19.868 20.8519 19.1793 22.2343 18.3024C23.9093 17.2399 24.3749 16.0977 24.3749 14.8824V14.8824Z" stroke="white" stroke-width="1.5" stroke-miterlimit="10" stroke-linecap="round"/>
<path d="M23.7674 16.9813C24.1034 17.5403 24.3749 18.1563 24.3749 18.8563C24.3749 20.9079 22.7159 22.493 20.6694 22.493C19.7223 22.4937 18.8112 22.1301 18.1249 21.4774M19.3749 13.7368C18.8741 12.8383 18.1831 12.5258 17.0639 12.5012C17.0249 12.499 16.9865 12.5121 16.9569 12.5377C16.9273 12.5633 16.9088 12.5994 16.9053 12.6383C16.8682 13.975 15.6249 14.3903 15.6249 15.4957C15.6249 16.2524 15.8354 16.6286 16.2952 17.0301L19.3749 13.7368Z" stroke="white" stroke-width="1.5" stroke-miterlimit="10" stroke-linecap="round"/>
</svg>
