<svg width="40" height="40" viewBox="0 0 40 40" fill="none" xmlns="http://www.w3.org/2000/svg">
<rect width="40" height="40" rx="20" fill="#FD3D39"/>
<path d="M20.0001 28.1255C22.4164 28.1255 24.3751 26.1667 24.3751 23.7505C24.3751 21.3342 22.4164 19.3755 20.0001 19.3755C17.5839 19.3755 15.6251 21.3342 15.6251 23.7505C15.6251 26.1667 17.5839 28.1255 20.0001 28.1255Z" stroke="white" stroke-width="1.5" stroke-linecap="round" stroke-linejoin="round"/>
<path d="M20.0001 25.627C21.0356 25.627 21.8751 24.7875 21.8751 23.752C21.8751 22.7164 21.0356 21.877 20.0001 21.877C18.9646 21.877 18.1251 22.7164 18.1251 23.752C18.1251 24.7875 18.9646 25.627 20.0001 25.627Z" stroke="white" stroke-width="1.5" stroke-linecap="round" stroke-linejoin="round"/>
<path d="M15.7423 22.6206L11.6345 16.2269C11.5173 16.0445 11.4496 15.8347 11.4379 15.6183C11.4263 15.4018 11.4711 15.186 11.5681 14.9921L12.779 12.5702C12.8828 12.3623 13.0424 12.1875 13.2401 12.0653C13.4377 11.9431 13.6654 11.8784 13.8978 11.8784H26.1025C26.3346 11.8784 26.5622 11.9431 26.7596 12.0651C26.9571 12.1872 27.1166 12.3618 27.2204 12.5694L28.4314 14.9913C28.5283 15.1852 28.5732 15.401 28.5616 15.6175C28.5499 15.834 28.4822 16.0437 28.365 16.2261L24.2579 22.6206M24.4923 15.6284H11.4454M26.7478 12.0581L21.9142 19.769M15.4904 15.6284L18.0861 19.769" stroke="white" stroke-width="1.5" stroke-linecap="round" stroke-linejoin="round"/>
</svg>
