<svg width="40" height="40" viewBox="0 0 40 40" fill="none" xmlns="http://www.w3.org/2000/svg">
<rect width="40" height="40" rx="20" fill="#406477"/>
<path d="M20.5078 23.1103C20.3429 23.1225 20.1765 23.1286 20.0086 23.1286C19.8043 23.1286 19.6023 23.1193 19.4027 23.1017C18.4152 23.0142 17.4583 22.7142 16.5976 22.2225C15.7368 21.7307 14.9925 21.0587 14.4156 20.2525C14.4004 20.2308 14.3799 20.2133 14.3561 20.2017C14.3324 20.1901 14.306 20.1848 14.2796 20.1861C14.2531 20.1875 14.2275 20.1955 14.205 20.2095C14.1826 20.2235 14.164 20.243 14.1511 20.2661L11.3386 25.3208C11.2316 25.5161 11.2148 25.7505 11.3277 25.9411C11.3865 26.0357 11.4683 26.1137 11.5656 26.1678C11.6628 26.2219 11.7723 26.2504 11.8836 26.2505H14.9304C15.0366 26.2466 15.1418 26.2711 15.2353 26.3214C15.3289 26.3717 15.4073 26.4461 15.4625 26.5368L16.9726 29.063C17.0279 29.1568 17.1063 29.2347 17.2003 29.2894C17.2944 29.3442 17.4009 29.3738 17.5097 29.3755C17.7418 29.3626 17.982 29.2118 18.0785 29.0005L20.6609 23.3306C20.672 23.306 20.6766 23.2789 20.6742 23.2519C20.6717 23.225 20.6623 23.1992 20.6469 23.177C20.6314 23.1548 20.6105 23.137 20.5861 23.1253C20.5617 23.1136 20.5347 23.1084 20.5078 23.1103ZM28.6578 25.3083L25.8636 20.2626C25.8507 20.2397 25.8322 20.2205 25.8099 20.2066C25.7876 20.1927 25.7621 20.1847 25.7359 20.1833C25.7096 20.1819 25.6834 20.1872 25.6597 20.1986C25.6361 20.21 25.6156 20.2272 25.6004 20.2486C24.8319 21.3252 23.7701 22.158 22.5414 22.6478C22.3905 22.7072 22.2685 22.8227 22.2007 22.97L20.7609 26.138C20.7424 26.1785 20.7328 26.2224 20.7328 26.2669C20.7328 26.3114 20.7424 26.3554 20.7609 26.3958L21.9433 28.997C22.039 29.2083 22.2789 29.3626 22.5105 29.3755C22.6194 29.3728 22.7258 29.3423 22.8195 29.2867C22.9132 29.2312 22.991 29.1526 23.0457 29.0583L24.5507 26.5357C24.6636 26.3462 24.8683 26.2493 25.089 26.2505H28.166C28.4265 26.2505 28.6238 26.1146 28.7128 25.8599C28.7442 25.7695 28.7554 25.6733 28.7459 25.5781C28.7364 25.4828 28.7063 25.3908 28.6578 25.3083Z" fill="white"/>
<path d="M20.01 18.1265C21.0458 18.1265 21.8854 17.287 21.8854 16.2515C21.8854 15.2159 21.0458 14.3765 20.01 14.3765C18.9743 14.3765 18.1347 15.2159 18.1347 16.2515C18.1347 17.287 18.9743 18.1265 20.01 18.1265Z" fill="white"/>
<path d="M20.01 10.6279C16.9076 10.6279 14.385 13.151 14.385 16.2529C14.385 19.3549 16.9088 21.8779 20.01 21.8779C23.1112 21.8779 25.635 19.3545 25.635 16.2529C25.635 13.1514 23.1119 10.6279 20.01 10.6279ZM20.01 19.3779C19.3919 19.3779 18.7877 19.1947 18.2738 18.8513C17.7599 18.5079 17.3594 18.0198 17.1229 17.4488C16.8863 16.8778 16.8244 16.2495 16.945 15.6433C17.0656 15.0371 17.3632 14.4803 17.8003 14.0432C18.2373 13.6062 18.7941 13.3086 19.4003 13.188C20.0065 13.0674 20.6348 13.1293 21.2059 13.3658C21.7769 13.6023 22.2649 14.0029 22.6083 14.5168C22.9517 15.0307 23.135 15.6349 23.135 16.2529C23.1339 17.0814 22.8044 17.8757 22.2185 18.4615C21.6327 19.0473 20.8385 19.3769 20.01 19.3779Z" fill="white"/>
</svg>
